<?xml version="1.0" encoding="UTF-8"?><svg id="Laag_1" xmlns="http://www.w3.org/2000/svg" viewBox="0 0 473.48 485.75"><defs><linearGradient id="brandGrad" x1="0" y1="0" x2="1" y2="1"><stop offset="0" stop-color="#ff4d4f"/><stop offset="1" stop-color="#c81d25"/></linearGradient></defs><path fill="url(#brandGrad)" d="M356.99,0H0v177.34h50.17V50.12h302.96c14.89,0,44.85,22.13,53.79,34.94,27.85,39.89,16.62,72.78-5.54,111.5l42.48,21.51C510.25,139.14,458.01,12.7,356.99,0ZM347.35,158.06c-2.22-15.99,5.8-37.86-5.79-50.12H100.34v269.86h247v-50.12h-196.83v-57.83h210.34c2.82,0,19.13,8.91,23.3,11.42,52.66,31.64,51.39,106.55,1.53,140.61-4.03,2.76-26.11,13.74-28.7,13.74H50.17v-146.49H0v196.61h360.85c7.53,0,38.47-13.89,46.96-18.63,87.46-48.89,86.83-178.75.97-229.7-6.1-3.62-35.98-17.67-40.2-17.67h-218.06v-61.68h196.83Z"/></svg>