<?xml version="1.0" encoding="utf-8"?>
<!-- Generator: Adobe Illustrator 28.2.0, SVG Export Plug-In . SVG Version: 6.00 Build 0)  -->
<svg version="1.1" id="Layer_1" xmlns="http://www.w3.org/2000/svg" xmlns:xlink="http://www.w3.org/1999/xlink" x="0px" y="0px"
	 viewBox="0 0 1700.8 1700.8" style="enable-background:new 0 0 1700.8 1700.8;" xml:space="preserve">
<style type="text/css">
	.st0{fill:url(#SVGID_1_);}
	.st1{fill:url(#SVGID_00000013177965709076751690000004604215683366544513_);}
	.st2{fill:#FFFFFF;}
	.st3{fill:url(#SVGID_00000065065865590186148210000011616478316938245567_);}
	.st4{fill:#E62323;}
</style>
<g>
	
		<radialGradient id="SVGID_1_" cx="1591.3671" cy="1052.676" r="413.957" gradientTransform="matrix(1.8918 0 0 2.2898 -2192.9041 -1931.8771)" gradientUnits="userSpaceOnUse">
		<stop  offset="0" style="stop-color:#FFE682"/>
		<stop  offset="0.2034" style="stop-color:#FFE47F"/>
		<stop  offset="0.3763" style="stop-color:#FFDD74"/>
		<stop  offset="0.5382" style="stop-color:#FFD363"/>
		<stop  offset="0.6933" style="stop-color:#FFC34A"/>
		<stop  offset="0.8436" style="stop-color:#FFB02A"/>
		<stop  offset="0.9884" style="stop-color:#FF9803"/>
		<stop  offset="0.9994" style="stop-color:#FF9600"/>
	</radialGradient>
	<path class="st0" d="M900.8,141.7c6.5,7.3,12.2,12.7,16.8,19c30.3,41.2,44,88.7,52.5,138.3c10,58.2,10.1,116.6,2.6,175.1
		c-0.1,0.9,0,1.8,0,6c66.1-57,130.4-112.4,196.4-169.4c21,64,41.7,127,63.3,193.1c29.1-32.9,57.1-64.5,85.9-97.1
		c7.3,8.3,14.6,15.6,20.9,23.7c36.9,47.4,65.9,99.4,83.7,156.7c29,93.1,31.5,187.1,6.5,281.8c-20.3,77.2-56.8,145.9-105.6,208.4
		c-36.7,46.9-81.5,85.5-126.6,124c-27.4,23.4-54,47.7-80.9,71.6c-36,32-72,64.1-108.1,96.1c-36.1,32-72,64.2-108.3,95.9
		c-33.8,29.5-68.1,58.4-101.9,87.8c-2.2,1.9-6.6,6.3-6.6,6.3s-4.3-3.5-7.2-6.3c-18.9-18.2-38.3-35.8-57.3-54
		c-37.2-35.7-74.3-71.5-111.1-107.6c-32.5-31.8-64.5-64.1-96.6-96.3c-29.5-29.7-58.8-59.5-88.1-89.4c-28.4-29-57-57.7-84.8-87.3
		c-28.6-30.5-57.9-60.5-84-93c-61.6-76.6-97-164.6-106.8-262.6c-7.2-72,2.2-141.5,35-206.7c13.3-26.5,30.4-50.7,52.6-71
		c1-0.9,6.5-5.7,6.5-5.7s2.8,2.8,4.8,4.8c22.7,23,45.8,45.7,68.7,68.5c9.5,9.5,18.8,19.1,28.3,28.5c1.2,1.2,2.8,2.1,4.5,3.3
		c5.3-15.2,9.9-30,15.7-44.3c16.3-39.9,39.9-75.4,66.7-108.9c11.2-14,22.3-28.5,35.5-40.5c32.5-29.7,63.9-61.1,105.4-78.8
		c2.8-1.2,11.5-4.3,11.5-4.3s1.3,5.2,2.9,11.5c7.9,31.5,18,62.2,35.7,89.8c6.1,9.5,13.6,18,20.2,27.1c3.7,5.1,7.7,5.3,12.5,2.1
		c18.1-11.8,37.4-22.1,54.2-35.6c66.9-53.5,119.2-119.1,157.8-195.5c8.4-16.6,14.3-34.3,21.3-51.6
		C897,151.7,898.4,147.8,900.8,141.7z"/>
	<g>
		
			<linearGradient id="SVGID_00000176749927106505256770000010902964471360158123_" gradientUnits="userSpaceOnUse" x1="759.7572" y1="970.9498" x2="738.769" y2="817.0366">
			<stop  offset="0" style="stop-color:#002B6C"/>
			<stop  offset="1" style="stop-color:#005AEB"/>
		</linearGradient>
		<path style="fill:url(#SVGID_00000176749927106505256770000010902964471360158123_);" d="M876.5,912.1
			c-104.1-5.6-208.3-15.8-312.4-28.4c-16-2-27.8-16.5-26.4-32.4c5.9-67.8,11.9-136.1,17.8-204.7c1.4-16.1,15.5-28.6,31.5-27.8
			c104.1,5.6,208.3,15.8,312.4,28.4c16,2,27.8,16.5,26.4,32.4c-5.9,67.8-11.9,136.1-17.8,204.7C906.6,900.4,892.5,912.9,876.5,912.1
			z"/>
	</g>
	<g>
		<g>
			<path class="st2" d="M659.6,682.4c-17.3-1.6-34.5-2.8-51.8-3.8c-4.3,51.1-8.5,102-12.8,152.4c17.3,2.3,34.5,4.4,51.8,6.2
				c39.9,4.2,78.6-17.5,83.1-70.5C734.4,714,699.5,686.2,659.6,682.4z M692.5,763.5c-2.8,33.7-25.1,42-47.3,39.7
				c-3.4-0.3-6.8-0.7-10.2-1c2.4-29.1,4.8-58.2,7.2-87.4c3.4,0.3,6.8,0.6,10.2,0.9C674.6,717.6,695.3,729.8,692.5,763.5z"/>
		</g>
		<g>
			<path class="st2" d="M756.4,690.8c35.6,1.8,71.3,5.3,107,9.9c-1,11-1.9,21.9-2.9,32.9c-22.8-2.5-45.6-4.8-68.3-6.7
				c-0.7,8.5-1.5,17.1-2.2,25.6c17.9,1.6,35.9,3.2,53.8,4.9c-1,11.1-1.9,22.2-2.9,33.3c-17.9-1.5-35.9-3-53.8-4.7
				c-0.8,9.4-1.6,18.8-2.4,28.2c23.6,2.3,47.2,4.2,70.7,5.7c-1,11.1-1.9,22.1-2.9,33.2c-36.4-1.8-72.9-5.3-109.4-10
				C747.6,792.8,752,741.9,756.4,690.8z"/>
		</g>
	</g>
	<g>
		
			<linearGradient id="SVGID_00000168820357697156235080000008272699791620604297_" gradientUnits="userSpaceOnUse" x1="1008.6001" y1="994.1938" x2="1043.8289" y2="1210.5992">
			<stop  offset="0" style="stop-color:#002B6C"/>
			<stop  offset="1" style="stop-color:#005AEB"/>
		</linearGradient>
		<path style="fill:url(#SVGID_00000168820357697156235080000008272699791620604297_);" d="M1348.4,1400.3l-624-54.6
			c-15.7-1.4-27.2-15.2-25.9-30.8l18.8-214.3c1.4-15.7,15.2-27.2,30.8-25.9l624,54.6c15.7,1.4,27.2,15.2,25.9,30.8l-18.8,214.3
			C1377.8,1390.1,1364,1401.7,1348.4,1400.3z"/>
	</g>
	<g>
		<path class="st2" d="M756,1130.3c13.5,1.1,26.9,2.3,40.4,3.5c5.9,34.7,11.8,69.4,17.6,104.1c12.5-33.1,25.1-66.1,37.6-99.2
			c11.2,1,22.3,2,33.5,3c6.9,34.8,13.7,69.7,20.6,104.5c11.7-33.2,23.4-66.3,35.1-99.4c13.4,1.2,26.8,2.5,40.2,3.8
			c-19.8,52.6-39.6,105.3-59.3,158.1c-13-1.2-26.1-2.3-39.1-3.5c-6.5-33.5-13-67-19.6-100.4c-12,31.8-24.1,63.6-36.1,95.4
			c-13-1.2-25.9-2.4-38.8-3.6C777.4,1241,766.7,1185.6,756,1130.3z"/>
		<path class="st2" d="M992.7,1151.6c36.9,3.5,73.8,7.1,110.7,10.7c-1,11.6-2,23.2-3,34.8c-23.6-2.2-47.2-4.4-70.7-6.6
			c-0.8,8.9-1.5,17.8-2.3,26.8c18.6,1.7,37.1,3.4,55.7,5.1c-1,11.6-2,23.3-3,34.9c-18.6-1.6-37.1-3.3-55.7-4.9
			c-0.8,9.9-1.7,19.7-2.5,29.6c24.4,2.1,48.8,4.2,73.2,6.3c-1,11.6-2,23.3-3,34.9c-37.7-3.1-75.5-6.3-113.2-9.5
			C983.5,1259.6,988.1,1205.6,992.7,1151.6z"/>
		<path class="st2" d="M1126,1164.5c32.5,3.2,64.9,6.5,97.4,9.7c-1,11.4-2,22.8-3,34.2c-20.7-1.9-41.5-3.9-62.2-5.9
			c-0.8,8.8-1.5,17.6-2.3,26.4c16.3,1.5,32.7,2.9,49,4.4c-1,11.5-2,22.9-3,34.4c-16.3-1.4-32.7-2.7-49-4.1
			c-0.8,9.7-1.7,19.5-2.5,29.2c21.5,1.7,42.9,3.5,64.4,5.1c-1,11.4-2,22.9-3,34.3c-33.2-2.4-66.4-4.9-99.6-7.5
			C1116.8,1271.3,1121.4,1217.8,1126,1164.5z"/>
		<path class="st2" d="M1227.8,1334.9c4.6-52.6,9.2-105,13.8-157.4c10.3,1.1,20.7,2.1,31,3.2c-1.8,20.3-3.6,40.5-5.4,60.8
			c15.5-19.1,31.1-38,46.6-56.7c12.8,1.3,25.5,2.6,38.3,3.8c-15.9,18.5-31.9,37.4-47.8,56.4c12.7,32.6,25.3,64.8,38,96.6
			c-13.1-0.7-26.1-1.4-39.2-2.1c-7.5-21.9-15.1-43.9-22.6-66c-6,7.2-12,14.5-18,21.8c-1.2,13.9-2.4,27.7-3.7,41.6
			C1248.5,1336.3,1238.2,1335.6,1227.8,1334.9z"/>
	</g>
	<path class="st4" d="M1521.2,1049.9c-370.6,55.8-741.8,119.7-1112.2,156.2c-16.6,1.6-31.9-10.7-34.1-27.5
		c-10.2-74.6-20.4-148.7-30.6-222.3c-2.3-16.5,9.3-31.9,25.9-34.4c370.6-55.8,741.8-119.7,1112.2-156.2
		c16.6-1.6,31.8,10.7,34.1,27.5c10.2,74.6,20.4,148.7,30.6,222.3C1549.4,1032,1537.8,1047.4,1521.2,1049.9z"/>
	<g>
		<path class="st2" d="M391.5,981.2c12.4-2.1,24.8-4.2,37.1-6.3c12.5,33,25,66.4,37.5,100.2c4.4-36.2,8.8-72.5,13.2-109
			c10.3-1.8,20.5-3.6,30.8-5.5c13.4,33.6,26.8,67.5,40.2,101.6c3.7-36.9,7.3-73.8,11-110.9c12.3-2.2,24.6-4.5,37-6.8
			c-6.8,59.7-13.7,119.1-20.5,178.4c-12,1.8-23.9,3.5-35.9,5.2c-12.8-33-25.7-65.7-38.5-98.2c-4.2,35.2-8.5,70.3-12.7,105.2
			c-11.9,1.6-23.8,3.1-35.7,4.6C433.8,1086.1,412.6,1033.1,391.5,981.2z"/>
		<path class="st2" d="M687.3,934.3c-13.3,2-26.5,3.9-39.8,5.9c-11.5,60-23,119.7-34.5,179c14.4-1.7,28.9-3.5,43.3-5.2
			c1.9-11.7,3.9-23.3,5.8-35c17.8-2.3,35.6-4.6,53.3-7c5.5,10.8,10.9,21.6,16.4,32.4c14.3-1.9,28.7-3.8,43-5.7
			C745.7,1043.4,716.5,988.5,687.3,934.3z M668.4,1041c2.6-15.5,5.2-31.1,7.8-46.7c7.2,14.2,14.4,28.4,21.6,42.7
			C688.1,1038.4,678.3,1039.7,668.4,1041z"/>
		<path class="st2" d="M912.8,1026.8c-3.5-13.9-11.7-24.4-23-30.3c11.3-8.5,17-20.7,14.7-37.3c-4.6-32.5-29.4-53.1-67-47.4
			c-25.1,3.7-50.1,7.5-75.2,11.2c8.2,57.3,16.4,114.8,24.6,172.4c14.6-2,29.1-4,43.7-6c-2.8-19.8-5.6-39.6-8.4-59.3
			c9.2-1.3,18.4-2.6,27.6-3.9c9.5-1.4,17.8,4,20.3,13.5c3.8,14.2,7.7,28.4,11.5,42.6c14.6-2.1,29.1-4.2,43.7-6.3
			C921,1059.5,916.9,1043.1,912.8,1026.8z M840.6,985.6c-9.5,1.4-19,2.8-28.6,4.1c-1.9-13.3-3.8-26.7-5.7-40
			c9.5-1.4,19-2.8,28.6-4.2c13.9-2,21.8,6.4,23.3,17C859.7,973.2,854.5,983.5,840.6,985.6z"/>
		<path class="st2" d="M923.7,900.8c15.8-2.2,31.6-4.5,47.4-6.7c21,34.4,42,68.7,63,103c10.4-38.7,20.8-77.4,31.2-116.1
			c15.7-2.1,31.4-4.3,47.1-6.3c8.3,56.9,16.5,113.7,24.8,170.4c-13.3,1.9-26.7,3.9-40,5.8c-4.4-30.1-8.7-60.1-13.1-90.3
			c-8.6,31.9-17.1,63.9-25.7,95.8c-10.3,1.5-20.5,2.9-30.8,4.4c-17.4-28.3-34.8-56.7-52.1-85c4.4,30.2,8.7,60.4,13.1,90.6
			c-13.3,1.9-26.7,3.8-40,5.7C940.2,1015,932,957.9,923.7,900.8z"/>
		<path class="st2" d="M1147.9,985.1c12.6-2.1,25.3-4.2,37.9-6.2c2.9,14.3,13,22.2,26.4,19.9c11.8-2,18.6-9.3,17.3-18.8
			c-3.9-28.9-76.9,9.9-86.4-60.3c-4-29.4,15.9-53.9,47.8-58.7c34.8-5.2,60.7,13.2,65.7,46.5c-12.5,1.9-25,3.8-37.5,5.8
			c-2.4-10.9-10.9-16.8-23.2-14.9c-9.8,1.5-15.6,7.7-14.5,15.3c4.4,32.1,78.2-9.6,87.6,59.2c4.4,32.3-15.9,57-51.8,63.2
			C1181.4,1042.2,1154.1,1022.2,1147.9,985.1z"/>
		<path class="st2" d="M1302,884.3c-13.7,1.7-27.5,3.5-41.2,5.3c-1.8-12.5-3.5-25-5.3-37.4c39.7-5,79.4-9.7,119.1-14
			c1.8,12.2,3.5,24.4,5.3,36.6c-13.7,1.6-27.5,3.2-41.2,4.9c6.4,44.4,12.8,88.6,19.1,132.7c-12.2,1.8-24.4,3.7-36.7,5.5
			C1314.8,973.5,1308.4,928.9,1302,884.3z"/>
		<path class="st2" d="M1383.5,836.8c28-3.7,56.1-7.2,84.1-10.2c1.5,11.9,3,23.8,4.5,35.7c-17.9,2.2-35.8,4.5-53.7,6.9
			c1.1,9.2,2.3,18.5,3.4,27.7c14.1-2,28.2-4,42.3-5.9c1.5,11.9,3,23.8,4.5,35.7c-14.1,2.1-28.2,4.2-42.3,6.4
			c1.3,10.1,2.5,20.3,3.8,30.4c18.5-3.1,37-6,55.6-8.9c1.5,11.8,3,23.6,4.5,35.3c-28.6,4.8-57.3,9.9-85.9,15
			C1397.3,949.2,1390.4,893.2,1383.5,836.8z"/>
	</g>
</g>
</svg>
